<?xml version="1.0" encoding="UTF-8" standalone="no"?>
<!-- Created with Inkscape (http://www.inkscape.org/) -->

<svg
   xmlns:dc="http://purl.org/dc/elements/1.1/"
   xmlns:cc="http://creativecommons.org/ns#"
   xmlns:rdf="http://www.w3.org/1999/02/22-rdf-syntax-ns#"
   xmlns:svg="http://www.w3.org/2000/svg"
   xmlns="http://www.w3.org/2000/svg"
   xmlns:sodipodi="http://sodipodi.sourceforge.net/DTD/sodipodi-0.dtd"
   xmlns:inkscape="http://www.inkscape.org/namespaces/inkscape"
   version="1.1"
   id="svg3713"
   xml:space="preserve"
   width="1066.6667"
   height="1066.6667"
   viewBox="0 0 1066.6667 1066.6667"
   sodipodi:docname="team.svg"
   inkscape:version="0.92.4 (5da689c313, 2019-01-14)"><metadata
     id="metadata3719"><rdf:RDF><cc:Work
         rdf:about=""><dc:format>image/svg+xml</dc:format><dc:type
           rdf:resource="http://purl.org/dc/dcmitype/StillImage" /><dc:title></dc:title></cc:Work></rdf:RDF></metadata><defs
     id="defs3717"><clipPath
       clipPathUnits="userSpaceOnUse"
       id="clipPath3743"><path
         d="M 0,800 H 800 V 0 H 0 Z"
         id="path3741"
         inkscape:connector-curvature="0" /></clipPath><clipPath
       clipPathUnits="userSpaceOnUse"
       id="clipPath3919"><path
         d="M 0,800 H 800 V 0 H 0 Z"
         id="path3917"
         inkscape:connector-curvature="0" /></clipPath></defs><sodipodi:namedview
     pagecolor="#ffffff"
     bordercolor="#666666"
     borderopacity="1"
     objecttolerance="10"
     gridtolerance="10"
     guidetolerance="10"
     inkscape:pageopacity="0"
     inkscape:pageshadow="2"
     inkscape:window-width="1366"
     inkscape:window-height="715"
     id="namedview3715"
     showgrid="false"
     inkscape:zoom="0.51187496"
     inkscape:cx="533.33337"
     inkscape:cy="533.33337"
     inkscape:window-x="-8"
     inkscape:window-y="-8"
     inkscape:window-maximized="1"
     inkscape:current-layer="g3721" /><g
     id="g3721"
     inkscape:groupmode="layer"
     inkscape:label="160839-OV2ZX4-155"
     transform="matrix(1.3333333,0,0,-1.3333333,0,1066.6667)"><g
       id="g3737"
       transform="matrix(1.392346,0,0,1.6586207,-183.93489,-336.26729)"><g
         id="g3739"
         clip-path="url(#clipPath3743)"><g
           id="g3745"
           transform="translate(458.9286,669.7036)"><path
             d="m 0,0 c 0,0 5.876,10.493 7.555,10.073 1.679,-0.42 -0.42,-5.456 -0.42,-5.456 0,0 16.369,-3.778 16.789,-5.456 C 24.343,-2.518 3.358,-5.037 3.358,-5.037 Z"
             style="fill:#e29721;fill-opacity:1;fill-rule:nonzero;stroke:none"
             id="path3747"
             inkscape:connector-curvature="0" /></g><g
           id="g3749"
           transform="translate(414.2823,642.2804)"><path
             d="m 0,0 c 0,0 32.449,-10.224 44.451,28.449 l 5.779,-4.445 c 0,0 -2.223,-42.673 -47.118,-40.006 -0.444,0.026 0,-1.778 0,-1.778 C 3.112,-17.78 0,-10.668 0,0"
             style="fill:#31849e;fill-opacity:1;fill-rule:nonzero;stroke:none"
             id="path3751"
             inkscape:connector-curvature="0" /></g><g
           id="g3753"
           transform="translate(422.5799,584.1957)"><path
             d="m 0,0 c 0,0 21.336,-82.382 25.485,-98.385 0,0 9.483,-1.778 10.076,-3.556 0.592,-1.778 -16.595,-2.371 -18.373,-1.185 -1.778,1.185 -33.19,71.121 -41.488,100.163 z"
             style="fill:#3c1f08;fill-opacity:1;fill-rule:nonzero;stroke:none"
             id="path3755"
             inkscape:connector-curvature="0" /></g><g
           id="g3757"
           transform="translate(380.5146,584.1957)"><path
             d="m 0,0 c 0,0 -21.336,-82.382 -25.485,-98.385 0,0 -9.483,-1.778 -10.076,-3.556 -0.592,-1.778 16.595,-2.371 18.373,-1.185 1.778,1.185 33.19,71.121 41.488,100.163 z"
             style="fill:#3c1f08;fill-opacity:1;fill-rule:nonzero;stroke:none"
             id="path3759"
             inkscape:connector-curvature="0" /></g><g
           id="g3761"
           transform="translate(385.2411,642.8709)"><path
             d="m 0,0 c 0,0 -9.483,-46.822 -7.705,-61.639 0,0 32.598,-6.519 49.785,1.186 0,0 -2.963,42.08 -10.668,59.268 0,0 -5.334,6.519 -31.412,1.185"
             style="fill:#4da9af;fill-opacity:1;fill-rule:nonzero;stroke:none"
             id="path3763"
             inkscape:connector-curvature="0" /></g><g
           id="g3765"
           transform="translate(396.0575,651.613)"><path
             d="m 0,0 -0.889,-8.001 c 0,0 14.224,-6.762 14.224,-0.445 0,1.334 -2.222,9.779 -2.222,9.779 z"
             style="fill:#e29721;fill-opacity:1;fill-rule:nonzero;stroke:none"
             id="path3767"
             inkscape:connector-curvature="0" /></g><g
           id="g3769"
           transform="translate(413.8082,662.784)"><path
             d="m 0,0 c 0,-8.964 0.946,-16.23 -8.017,-16.23 -8.964,0 -16.231,7.266 -16.231,16.23 0,8.964 -4.693,16.23 16.231,16.23 C 0.946,16.23 0,8.964 0,0"
             style="fill:#e29721;fill-opacity:1;fill-rule:nonzero;stroke:none"
             id="path3771"
             inkscape:connector-curvature="0" /></g><g
           id="g3773"
           transform="translate(396.6411,673.2339)"><path
             d="m 0,0 c 0,0 12.891,-7.112 19.114,2.223 0,0 -8.001,11.112 -19.558,6.223 -11.558,-4.89 -8.002,-9.335 -8.002,-9.335 0,0 -4.445,-2.223 -3.111,-8.001 1.333,-5.779 7.112,-10.224 7.112,-10.224 0,0 9.779,8.89 2.667,16.891 z"
             style="fill:#3c1f08;fill-opacity:1;fill-rule:nonzero;stroke:none"
             id="path3775"
             inkscape:connector-curvature="0" /></g><g
           id="g3777"
           transform="translate(411.31,664.566)"><path
             d="M 0,0 C 0,0 4.223,-5.334 4.667,-8.001 4.89,-8.668 0.222,-8.668 0.222,-8.668 c 0,0 -1.778,4.89 -0.222,8.668"
             style="fill:#e26d21;fill-opacity:1;fill-rule:nonzero;stroke:none"
             id="path3779"
             inkscape:connector-curvature="0" /></g><g
           id="g3781"
           transform="translate(248.7172,258.8203)"><path
             d="m 0,0 c 0,-3.489 -25.97,-6.317 -58.006,-6.317 -32.035,0 -58.005,2.828 -58.005,6.317 0,3.489 25.97,6.317 58.005,6.317 C -25.97,6.317 0,3.489 0,0"
             style="fill:#fecd9a;fill-opacity:1;fill-rule:nonzero;stroke:none"
             id="path3783"
             inkscape:connector-curvature="0" /></g><g
           id="g3785"
           transform="translate(663,258.8203)"><path
             d="m 0,0 c 0,-3.489 -25.97,-6.317 -58.006,-6.317 -32.035,0 -58.005,2.828 -58.005,6.317 0,3.489 25.97,6.317 58.005,6.317 C -25.97,6.317 0,3.489 0,0"
             style="fill:#fecd9a;fill-opacity:1;fill-rule:nonzero;stroke:none"
             id="path3787"
             inkscape:connector-curvature="0" /></g><g
           id="g3789"
           transform="translate(546.0792,260.5998)"><path
             d="m 0,0 c 0,-4.05 -65.671,-7.334 -146.681,-7.334 -81.009,0 -146.681,3.284 -146.681,7.334 0,4.05 65.672,7.334 146.681,7.334 C -65.671,7.334 0,4.05 0,0"
             style="fill:#fecd9a;fill-opacity:1;fill-rule:nonzero;stroke:none"
             id="path3791"
             inkscape:connector-curvature="0" /></g><g
           id="g3793"
           transform="translate(495.5429,324.2295)"><path
             d="M 0,0 C 0,7.103 -4.303,13.368 -10.859,17.116 H 44.94 V 74.402 C 41.323,67.021 34.677,62.056 27.053,62.056 c -11.479,0 -20.784,11.221 -20.784,25.063 0,13.841 9.305,25.062 20.784,25.062 7.624,0 14.27,-4.965 17.887,-12.345 v 57.285 H -10.887 C -4.315,153.374 0,147.101 0,139.988 c 0,-11.479 -11.221,-20.784 -25.063,-20.784 -13.841,0 -25.062,9.305 -25.062,20.784 0,7.113 4.315,13.386 10.887,17.133 H -95.065 V 17.116 h 55.799 C -45.822,13.367 -50.125,7.103 -50.125,0 c 0,-11.479 11.221,-20.784 25.062,-20.784 C -11.221,-20.784 0,-11.479 0,0"
             style="fill:#f7a521;fill-opacity:1;fill-rule:nonzero;stroke:none"
             id="path3795"
             inkscape:connector-curvature="0" /></g><g
           id="g3797"
           transform="translate(523.8121,514.5897)"><path
             d="m 0,0 c 1.055,7.024 -2.27,13.858 -8.197,18.539 l 55.18,-8.287 8.287,55.181 c 2.733,-7.04 8.289,-12.226 15.313,-13.281 11.352,-1.704 22.22,8.01 24.276,21.698 2.055,13.689 -5.481,26.167 -16.832,27.872 -7.024,1.055 -13.858,-2.271 -18.539,-8.198 l 8.287,55.181 -138.453,20.791 -8.286,-55.18 c -2.734,7.04 -8.289,12.226 -15.314,13.281 -11.351,1.704 -22.219,-8.01 -24.275,-21.699 -2.056,-13.688 5.48,-26.166 16.831,-27.871 7.025,-1.055 13.859,2.271 18.539,8.198 l -8.286,-55.181 55.18,-8.287 c -7.04,-2.733 -12.226,-8.289 -13.28,-15.313 -1.705,-11.351 8.01,-22.22 21.698,-24.275 C -14.183,-18.887 -1.705,-11.351 0,0"
             style="fill:#9b3e1b;fill-opacity:1;fill-rule:nonzero;stroke:none"
             id="path3799"
             inkscape:connector-curvature="0" /></g><g
           id="g3801"
           transform="translate(383.3616,526.2731)"><path
             d="m 0,0 c -11.478,0 -20.784,11.221 -20.784,25.063 10e-4,13.841 9.306,25.062 20.784,25.062 7.099,0 13.36,-4.298 17.109,-10.848 v 55.788 h -56.23 c 6.581,3.746 10.902,10.024 10.902,17.142 0,11.479 -11.221,20.784 -25.062,20.784 -13.842,0 -25.063,-9.305 -25.063,-20.783 0,-7.119 4.321,-13.397 10.902,-17.143 h -55.454 V 37.78 c 3.617,7.38 10.263,12.345 17.887,12.345 11.479,0 20.784,-11.221 20.784,-25.062 C -84.225,11.221 -93.53,0 -105.009,0 c -7.624,0 -14.27,4.965 -17.887,12.346 V -44.94 H 17.109 V 10.848 C 13.36,4.299 7.099,0 0,0"
             style="fill:#ff4300;fill-opacity:1;fill-rule:nonzero;stroke:none"
             id="path3803"
             inkscape:connector-curvature="0" /></g><g
           id="g3805"
           transform="translate(355.5309,359.2325)"><path
             d="M 0,0 C 0,-7.624 -4.965,-14.27 -12.346,-17.887 H 44.94 v 55.8 c 3.748,-6.557 10.013,-10.86 17.116,-10.86 11.478,0 20.784,11.221 20.784,25.063 0,13.841 -9.306,25.062 -20.784,25.062 -7.103,0 -13.368,-4.303 -17.116,-10.859 v 55.799 H -10.82 C -4.287,125.869 0,132.121 0,139.21 c 0,11.478 -11.221,20.784 -25.063,20.784 -13.841,0 -25.062,-9.306 -25.062,-20.784 0,-7.089 4.287,-13.341 10.82,-17.092 h -55.76 V 64.04 c -3.517,7.824 -10.385,13.138 -18.284,13.138 -11.478,0 -20.784,-11.221 -20.784,-25.062 0,-13.842 9.306,-25.063 20.784,-25.063 7.899,0 14.767,5.314 18.284,13.138 V -17.887 H -37.78 C -45.16,-14.27 -50.125,-7.624 -50.125,0 c 0,11.478 11.221,20.784 25.062,20.784 C -11.221,20.784 0,11.478 0,0"
             style="fill:#9b3e1b;fill-opacity:1;fill-rule:nonzero;stroke:none"
             id="path3807"
             inkscape:connector-curvature="0" /></g><g
           id="g3809"
           transform="translate(212.4544,431.3567)"><path
             d="m 0,0 c 0,-8.964 0.946,-16.23 -8.017,-16.23 -8.964,0 -16.231,7.266 -16.231,16.23 0,8.964 -4.693,16.23 16.231,16.23 C 0.946,16.23 0,8.964 0,0"
             style="fill:#e29721;fill-opacity:1;fill-rule:nonzero;stroke:none"
             id="path3811"
             inkscape:connector-curvature="0" /></g><g
           id="g3813"
           transform="translate(193.5093,422.6927)"><path
             d="m 0,0 -6.223,-4.89 c 0,0 8.446,-8.001 11.557,-7.556 1.778,0.444 4.89,7.556 4.89,7.556 z"
             style="fill:#e29721;fill-opacity:1;fill-rule:nonzero;stroke:none"
             id="path3815"
             inkscape:connector-curvature="0" /></g><g
           id="g3817"
           transform="translate(255.4176,372.3203)"><path
             d="M 0,0 C 0,0 2.848,-3.531 4.214,-1.481 5.581,0.57 5.24,15.946 4.214,15.946 3.189,15.946 1.481,5.353 -0.57,4.328 -2.62,3.303 0,0 0,0"
             style="fill:#e29721;fill-opacity:1;fill-rule:nonzero;stroke:none"
             id="path3819"
             inkscape:connector-curvature="0" /></g><g
           id="g3821"
           transform="translate(193.213,406.0977)"><path
             d="m 0,0 c 0,0 21.929,-33.19 61.639,-27.856 l -0.593,-6.519 c 0,0 -39.71,-15.41 -71.714,18.965 0,0 -7.705,7.113 -2.371,16.003 C -7.705,9.483 0,0 0,0"
             style="fill:#31758d;fill-opacity:1;fill-rule:nonzero;stroke:none"
             id="path3823"
             inkscape:connector-curvature="0" /></g><g
           id="g3825"
           transform="translate(156.1705,384.4649)"><path
             d="m 0,0 c 0,0 -25.782,-39.117 1.778,-67.565 0,0 -13.335,-40.006 -13.335,-52.453 h 6.223 c 0,0 24.892,47.118 26.67,52.453 1.778,5.334 -13.335,35.56 -6.223,51.563 z"
             style="fill:#3c1f08;fill-opacity:1;fill-rule:nonzero;stroke:none"
             id="path3827"
             inkscape:connector-curvature="0" /></g><g
           id="g3829"
           transform="translate(154.0902,364.9866)"><path
             d="m 0,0 c 0,0 3.858,-40.531 43.864,-48.532 0,0 10.817,-35.454 18.535,-45.218 l 4.882,3.859 c 0,0 -6.734,44.825 -8.646,50.113 -1.913,5.287 -32.513,19.63 -36.855,36.595 z"
             style="fill:#3c1f08;fill-opacity:1;fill-rule:nonzero;stroke:none"
             id="path3831"
             inkscape:connector-curvature="0" /></g><g
           id="g3833"
           transform="translate(188.1405,420.1062)"><path
             d="m 0,0 c 0,0 -28.979,-14.035 -45.489,-55.315 0,0 26.801,-20.854 43.005,-17.616 0,0 -2.059,36.635 15.027,64.393 0,0 -10.52,3.343 -12.543,8.538"
             style="fill:#4da9af;fill-opacity:1;fill-rule:nonzero;stroke:none"
             id="path3835"
             inkscape:connector-curvature="0" /></g><g
           id="g3837"
           transform="translate(235.8859,389.5027)"><path
             d="M 0,0 C 0,0 4.149,7.408 5.334,7.112 6.519,6.816 5.038,3.26 5.038,3.26 c 0,0 11.557,-2.667 11.853,-3.853 0.297,-1.185 -14.52,-2.963 -14.52,-2.963 z"
             style="fill:#e29721;fill-opacity:1;fill-rule:nonzero;stroke:none"
             id="path3839"
             inkscape:connector-curvature="0" /></g><g
           id="g3841"
           transform="translate(176.0253,404.9124)"><path
             d="m 0,0 c 0,0 14.817,-26.671 24.3,-34.375 9.483,-7.705 37.931,15.409 37.931,15.409 l -2.37,4.742 -25.486,-7.112 -18.373,28.448 c 0,0 -6.519,7.112 -13.039,3.556 C -3.556,7.112 0,0 0,0"
             style="fill:#31849e;fill-opacity:1;fill-rule:nonzero;stroke:none"
             id="path3843"
             inkscape:connector-curvature="0" /></g><g
           id="g3845"
           transform="translate(150.8364,264.4474)"><path
             d="M 0,0 C 0,0 3.556,-5.334 7.557,-6.223 9.335,-8.001 -3.556,-7.112 -6.668,-4.89 -8.446,-3.556 -6.223,0 -6.223,0 Z"
             style="fill:#3c1f08;fill-opacity:1;fill-rule:nonzero;stroke:none"
             id="path3847"
             inkscape:connector-curvature="0" /></g><g
           id="g3849"
           transform="translate(220.5729,276.0539)"><path
             d="m 0,0 c 0,0 6.278,-1.297 9.75,0.881 2.514,-0.016 -7.283,-8.44 -11.059,-9.045 -2.202,-0.3 -3.119,3.792 -3.119,3.792 z"
             style="fill:#3c1f08;fill-opacity:1;fill-rule:nonzero;stroke:none"
             id="path3851"
             inkscape:connector-curvature="0" /></g><g
           id="g3853"
           transform="translate(195.2874,441.8066)"><path
             d="m 0,0 c 0,0 12.891,-7.112 19.114,2.223 0,0 -8.001,11.112 -19.559,6.223 -11.557,-4.89 -8.001,-9.335 -8.001,-9.335 0,0 -4.445,-2.223 -3.111,-8.001 1.333,-5.779 7.112,-10.224 7.112,-10.224 0,0 9.779,8.89 2.667,16.891 z"
             style="fill:#3c1f08;fill-opacity:1;fill-rule:nonzero;stroke:none"
             id="path3855"
             inkscape:connector-curvature="0" /></g><g
           id="g3857"
           transform="translate(209.9562,433.1387)"><path
             d="M 0,0 C 0,0 4.223,-5.334 4.667,-8.001 4.89,-8.668 0.222,-8.668 0.222,-8.668 c 0,0 -1.778,4.89 -0.222,8.668"
             style="fill:#e26d21;fill-opacity:1;fill-rule:nonzero;stroke:none"
             id="path3859"
             inkscape:connector-curvature="0" /></g><g
           id="g3861"
           transform="translate(529.517,433.0154)"><path
             d="M 0,0 C 0,0 -4.487,-0.666 -4.102,1.768 -3.717,4.202 6.958,15.275 7.711,14.58 8.465,13.885 2.54,4.939 3.353,2.796 4.165,0.653 0,0 0,0"
             style="fill:#e29721;fill-opacity:1;fill-rule:nonzero;stroke:none"
             id="path3863"
             inkscape:connector-curvature="0" /></g><g
           id="g3865"
           transform="translate(598.8384,414.917)"><path
             d="m 0,0 c 0,0 -38.761,-8.945 -63.866,22.281 l -4.062,-5.134 c 0,0 18.162,-38.528 65.043,-35.666 0,0 10.484,-0.154 12.743,9.965 C 12.118,1.564 0,0 0,0"
             style="fill:#31758d;fill-opacity:1;fill-rule:nonzero;stroke:none"
             id="path3867"
             inkscape:connector-curvature="0" /></g><g
           id="g3869"
           transform="translate(589.4191,360.1651)"><path
             d="m 0,0 c 0,0 3.556,-40.302 11.261,-57.49 7.705,-17.188 13.632,-35.561 13.632,-35.561 l -6.52,-4.741 c 0,0 11.261,-0.593 14.817,1.778 1.778,3.556 -4.741,61.046 -4.149,72.899 C 29.634,-11.261 28.449,5.334 28.449,5.334 28.449,5.334 10.076,9.483 0,0"
             style="fill:#3c1f08;fill-opacity:1;fill-rule:nonzero;stroke:none"
             id="path3871"
             inkscape:connector-curvature="0" /></g><g
           id="g3873"
           transform="translate(549.0317,269.5571)"><path
             d="M 0,0 C 2.839,-1.13 6.949,0.087 8.464,0.612 8.282,6.407 7.193,42.333 7.984,47.068 8.845,52.221 34.403,70.463 35.526,86.695 l 19.37,6.563 c 0,0 3.273,-37.688 -31.945,-51.711 0,0 -3.823,-33.218 -9.115,-43.968 l 0.002,-0.002 c 0,0 -0.151,-3.893 -2.214,-3.988 C 8.072,-6.492 -2.295,-0.436 0,0"
             style="fill:#3c1f08;fill-opacity:1;fill-rule:nonzero;stroke:none"
             id="path3875"
             inkscape:connector-curvature="0" /></g><g
           id="g3877"
           transform="translate(589.2345,438.6951)"><path
             d="m 0,0 c 0,-8.964 -0.946,-16.23 8.017,-16.23 8.964,0 16.231,7.266 16.231,16.23 0,8.964 4.693,16.23 -16.231,16.23 C -0.946,16.23 0,8.964 0,0"
             style="fill:#e29721;fill-opacity:1;fill-rule:nonzero;stroke:none"
             id="path3879"
             inkscape:connector-curvature="0" /></g><g
           id="g3881"
           transform="translate(606.4016,449.145)"><path
             d="m 0,0 c 0,0 -12.891,-7.112 -19.114,2.223 0,0 8.001,11.112 19.559,6.223 11.557,-4.89 8.001,-9.335 8.001,-9.335 0,0 4.445,-2.223 3.111,-8.001 -1.333,-5.779 -7.112,-10.224 -7.112,-10.224 0,0 -9.779,8.89 -2.667,16.891 z"
             style="fill:#3c1f08;fill-opacity:1;fill-rule:nonzero;stroke:none"
             id="path3883"
             inkscape:connector-curvature="0" /></g><g
           id="g3885"
           transform="translate(591.7327,440.4771)"><path
             d="m 0,0 c 0,0 -4.223,-5.334 -4.667,-8.001 -0.223,-0.667 4.445,-0.667 4.445,-0.667 0,0 1.778,4.89 0.222,8.668"
             style="fill:#e26d21;fill-opacity:1;fill-rule:nonzero;stroke:none"
             id="path3887"
             inkscape:connector-curvature="0" /></g><g
           id="g3889"
           transform="translate(595.0496,423.5817)"><path
             d="m 0,0 -0.889,-5.63 c 0,0 8.297,-0.297 10.668,2.963 L 9.483,3.852 Z"
             style="fill:#e29721;fill-opacity:1;fill-rule:nonzero;stroke:none"
             id="path3891"
             inkscape:connector-curvature="0" /></g><g
           id="g3893"
           transform="translate(593.5679,419.433)"><path
             d="m 0,0 c 0,0 -9.483,-49.785 -11.261,-65.787 0,0 23.115,-11.261 37.339,4.148 0,0 2.074,46.229 -14.521,65.195 C 11.557,3.556 3.26,-0.296 0,0"
             style="fill:#4da9af;fill-opacity:1;fill-rule:nonzero;stroke:none"
             id="path3895"
             inkscape:connector-curvature="0" /></g><g
           id="g3897"
           transform="translate(547.6901,389.1743)"><path
             d="m 0,0 c 0,0 -4.035,7.471 -5.225,7.193 -1.19,-0.279 0.238,-3.857 0.238,-3.857 0,0 -11.597,-2.49 -11.911,-3.671 -0.315,-1.181 14.473,-3.184 14.473,-3.184 z"
             style="fill:#e29721;fill-opacity:1;fill-rule:nonzero;stroke:none"
             id="path3899"
             inkscape:connector-curvature="0" /></g><g
           id="g3901"
           transform="translate(607.7788,403.6689)"><path
             d="m 0,0 c 0,0 -15.222,-26.441 -24.821,-34.001 -9.6,-7.559 -37.692,15.987 -37.692,15.987 l 2.442,4.705 25.374,-7.501 18.805,28.165 c 0,0 6.627,7.012 13.092,3.357 C 3.664,7.057 0,0 0,0"
             style="fill:#31849e;fill-opacity:1;fill-rule:nonzero;stroke:none"
             id="path3903"
             inkscape:connector-curvature="0" /></g><g
           id="g3905"
           transform="translate(441.9099,618.8052)"><path
             d="M 0,0 C 0,0 0.254,4.173 1.022,5.002 1.79,5.831 4.273,9.372 4.485,8.167 4.696,6.962 3.748,5.078 3.748,5.078 c 0,0 5.873,3.589 7.29,2.595 C 12.454,6.68 7.803,-0.749 6.539,-2.286 5.274,-3.823 2.691,-4.405 2.691,-4.405 Z"
             style="fill:#e29721;fill-opacity:1;fill-rule:nonzero;stroke:none"
             id="path3907"
             inkscape:connector-curvature="0" /></g><g
           id="g3909"
           transform="translate(382.5822,633.4031)"><path
             d="m 0,0 c 0,0 14.817,-26.671 24.3,-34.375 9.483,-7.705 37.931,15.409 37.931,15.409 l -2.37,4.742 -25.486,-7.112 -18.373,28.448 c 0,0 -6.519,7.112 -13.039,3.556 C -3.556,7.112 0,0 0,0"
             style="fill:#31849e;fill-opacity:1;fill-rule:nonzero;stroke:none"
             id="path3911"
             inkscape:connector-curvature="0" /></g></g></g></g></svg>