<?xml version="1.0" encoding="UTF-8" standalone="no"?>
<!-- Created with Inkscape (http://www.inkscape.org/) -->

<svg
   xmlns:dc="http://purl.org/dc/elements/1.1/"
   xmlns:cc="http://creativecommons.org/ns#"
   xmlns:rdf="http://www.w3.org/1999/02/22-rdf-syntax-ns#"
   xmlns:svg="http://www.w3.org/2000/svg"
   xmlns="http://www.w3.org/2000/svg"
   xmlns:sodipodi="http://sodipodi.sourceforge.net/DTD/sodipodi-0.dtd"
   xmlns:inkscape="http://www.inkscape.org/namespaces/inkscape"
   version="1.1"
   id="svg10"
   xml:space="preserve"
   width="666.66669"
   height="666.66669"
   viewBox="0 0 666.66669 666.66669"
   sodipodi:docname="vision.svg"
   inkscape:version="0.92.4 (5da689c313, 2019-01-14)"><metadata
     id="metadata16"><rdf:RDF><cc:Work
         rdf:about=""><dc:format>image/svg+xml</dc:format><dc:type
           rdf:resource="http://purl.org/dc/dcmitype/StillImage" /><dc:title></dc:title></cc:Work></rdf:RDF></metadata><defs
     id="defs14"><clipPath
       clipPathUnits="userSpaceOnUse"
       id="clipPath28"><path
         d="M 0,500 H 500 V 0 H 0 Z"
         id="path26"
         inkscape:connector-curvature="0" /></clipPath><clipPath
       clipPathUnits="userSpaceOnUse"
       id="clipPath252"><path
         d="M 0,500 H 500 V 0 H 0 Z"
         id="path250"
         inkscape:connector-curvature="0" /></clipPath><clipPath
       clipPathUnits="userSpaceOnUse"
       id="clipPath264"><path
         d="M 0,500 H 500 V 0 H 0 Z"
         id="path262"
         inkscape:connector-curvature="0" /></clipPath></defs><sodipodi:namedview
     pagecolor="#ffffff"
     bordercolor="#666666"
     borderopacity="1"
     objecttolerance="10"
     gridtolerance="10"
     guidetolerance="10"
     inkscape:pageopacity="0"
     inkscape:pageshadow="2"
     inkscape:window-width="1366"
     inkscape:window-height="715"
     id="namedview12"
     showgrid="false"
     inkscape:zoom="0.81899998"
     inkscape:cx="333.33334"
     inkscape:cy="333.33334"
     inkscape:window-x="-8"
     inkscape:window-y="-8"
     inkscape:window-maximized="1"
     inkscape:current-layer="g18" /><g
     id="g18"
     inkscape:groupmode="layer"
     inkscape:label="455044-PFM90E-651"
     transform="matrix(1.3333333,0,0,-1.3333333,0,666.66667)"><path
       d="M 0,0 H 500 V 500 H 0 Z"
       style="fill:#4fb8bb;fill-opacity:1;fill-rule:nonzero;stroke:none"
       id="path20"
       inkscape:connector-curvature="0" /><g
       id="g22"><g
         id="g24"
         clip-path="url(#clipPath28)"><g
           id="g30"
           transform="translate(57.6665,368.3335)"><path
             d="m 0,0 h 189.333 c 0,0 -37.279,8.345 -44,24.667 C 136,47.333 96.667,49.333 106.667,22 72,56.667 50.667,61.333 40,59.333 c -10.667,-2 -28.667,-16 -16,-42 C 14.667,28 8,19.333 12.667,12.667 1.333,20.667 -9.333,9.333 0,0"
             style="fill:#ffffff;fill-opacity:1;fill-rule:nonzero;stroke:none"
             id="path32"
             inkscape:connector-curvature="0" /></g><g
           id="g34"
           transform="translate(81,265.5)"><path
             d="m 0,0 h -57 c 0,0 -7,23.5 14,11 6,8 10.5,4.5 17,-1 3.5,4.5 9,4.5 26,-10"
             style="fill:#ffffff;fill-opacity:1;fill-rule:nonzero;stroke:none"
             id="path36"
             inkscape:connector-curvature="0" /></g><g
           id="g38"
           transform="translate(361.5,280)"><path
             d="M 0,0 H 99 C 99,0 56.5,1 44,10.5 31.5,20 19,16 24,8.5 8.5,25.5 -33.5,24 0,0"
             style="fill:#ffffff;fill-opacity:1;fill-rule:nonzero;stroke:none"
             id="path40"
             inkscape:connector-curvature="0" /></g><g
           id="g42"
           transform="translate(309.5283,186.833)"><path
             d="m 0,0 h -49.019 c 0,0 -6.019,20.21 12.04,9.46 5.16,6.88 9.03,3.87 14.62,-0.86 3.009,3.87 7.74,3.87 22.359,-8.6"
             style="fill:#ffffff;fill-opacity:1;fill-rule:nonzero;stroke:none"
             id="path44"
             inkscape:connector-curvature="0" /></g><g
           id="g46"
           transform="translate(125.6665,264.3335)"><path
             d="M 0,0 9,10 46.333,-10.667 38,-24"
             style="fill:none;stroke:#232323;stroke-width:4;stroke-linecap:butt;stroke-linejoin:miter;stroke-miterlimit:10;stroke-dasharray:none;stroke-opacity:1"
             id="path48"
             inkscape:connector-curvature="0" /></g><g
           id="g50"
           transform="translate(164.8335,284.6665)"><path
             d="m 0,0 -4.167,-5 c 0,0 -7.5,0.333 -13.833,-6.5 -6.333,-6.833 -6.333,-10.5 -4.667,-12.667 1.667,-2.166 9.334,-6.333 12.334,-4.833 3,1.5 6.166,8 6.166,8 0,0 1.667,-2.167 4.834,-4.167 3.166,-2 4.666,-1.5 5.166,-0.5 0.5,1 -3.166,3.5 -4,6.834 C 1,-15.5 1.5,-10.167 -1.5,-6.667 2,-3.5 4.833,-1.5 4.833,-1.5 Z"
             style="fill:#fcbc86;fill-opacity:1;fill-rule:nonzero;stroke:none"
             id="path52"
             inkscape:connector-curvature="0" /></g><g
           id="g54"
           transform="translate(165.6665,287)"><path
             d="m 0,0 -2,-2.167 5.833,-4 L 6.667,-4 Z"
             style="fill:#ffffff;fill-opacity:1;fill-rule:nonzero;stroke:none"
             id="path56"
             inkscape:connector-curvature="0" /></g><g
           id="g58"
           transform="translate(411.25,407)"><path
             d="m 0,0 -2.25,4.25 c 0,0 2.75,4.75 2.75,7.5 0,2.75 -18,-1.75 -18,-1.75 l -0.75,-3.75 c 0,0 -7.75,2.25 -11.75,2 -4,-0.25 -5.75,-2.5 -2.25,-3.5 3.5,-1 11.75,-2.75 13.75,-4 2,-1.25 11.25,-1 11.25,-1 l 3,-3.75 z"
             style="fill:#fcbc86;fill-opacity:1;fill-rule:nonzero;stroke:none"
             id="path60"
             inkscape:connector-curvature="0" /></g><g
           id="g62"
           transform="translate(415,403.75)"><path
             d="m 0,0 -2.75,4.5 -7.75,-3.25 2.5,-5 z"
             style="fill:#ffffff;fill-opacity:1;fill-rule:nonzero;stroke:none"
             id="path64"
             inkscape:connector-curvature="0" /></g><g
           id="g66"
           transform="translate(329.667,361.6665)"><path
             d="M 0,0 96,-8.333 74.666,40.333 85.333,45 124,-22.333 l -109.667,-2 c 0,0 -21,-42 -45,-68.334 -30.667,3 -34.667,6 -55.666,0.667 18.333,26.333 37.999,72 37.999,72 l -56.999,-17.333 -52.334,-43.334 -8,6 58.334,54.334 77.999,34.666 14,-3.666 z"
             style="fill:#232323;fill-opacity:1;fill-rule:nonzero;stroke:none"
             id="path68"
             inkscape:connector-curvature="0" /></g><g
           id="g70"
           transform="translate(331.333,340.8335)"><path
             d="M 0,0 -15.166,-22.167"
             style="fill:none;stroke:#3a3a3a;stroke-width:0.5;stroke-linecap:butt;stroke-linejoin:miter;stroke-miterlimit:10;stroke-dasharray:none;stroke-opacity:1"
             id="path72"
             inkscape:connector-curvature="0" /></g><g
           id="g74"
           transform="translate(309,373.3335)"><path
             d="m 0,0 -6.333,-18.333 5.333,-6 -3.5,-5.834 L 5,-59 c 0,0 -13.667,-31.333 -23.667,-42.167"
             style="fill:none;stroke:#3a3a3a;stroke-width:0.5;stroke-linecap:butt;stroke-linejoin:miter;stroke-miterlimit:10;stroke-dasharray:none;stroke-opacity:1"
             id="path76"
             inkscape:connector-curvature="0" /></g><g
           id="g78"
           transform="translate(316,378)"><path
             d="m 0,0 14.25,-5.75 6.25,-17 L 16,-41 13.25,-33.75 0.75,-53.5 Z"
             style="fill:#ffffff;fill-opacity:1;fill-rule:nonzero;stroke:none"
             id="path80"
             inkscape:connector-curvature="0" /></g><g
           id="g82"
           transform="translate(362.667,431.8335)"><path
             d="m 0,0 c 0.888,-1.286 2.43,-2.279 3.954,-1.512 1.643,0.827 1.721,2.5 0.397,3.478 1.881,0.013 3.568,-0.932 5.482,-0.103 2.88,1.247 5.214,4.89 5.486,7.899 0.62,6.824 -8.136,5.272 -11.846,2.611 0.922,2.466 5.389,6.672 3.771,9.549 -0.924,1.643 -4.637,1.637 -5.571,0.115 2.095,1.571 1.901,5.157 0.57,7.143 -1.623,2.42 -5.389,3.713 -8.206,3.953 -2.189,0.186 -4.282,-0.194 -6.064,-1.527 -1.775,-1.327 -3.693,-2.85 -4.394,-5.052 0.1,1.106 0.619,2.525 -0.716,3.163 -1.753,0.839 -2.378,-0.993 -2.434,-2.297 0.017,0.415 -3.854,2.367 -4.384,2.698 -1.702,1.061 -4.164,1.203 -6.108,1.064 -2.702,-0.194 -7.293,-2.123 -8.687,-4.68 -1.874,-3.436 2.372,-5.909 3.906,-8.314 -4.769,1.26 -9.598,-0.459 -13.298,-3.613 -1.597,-1.362 -3.545,-3.988 -2.038,-6.07 0.701,-0.97 3.621,-2.276 4.544,-2.497 -5.614,-1.224 -9.876,-4.995 -10.672,-10.865 -0.641,-4.728 6.87,-8.853 10.83,-6.387 -2.913,-3.516 -3.888,-8.329 -1.265,-12.347 1.386,-2.122 4.961,-2.709 7.071,-1.252 -1.278,-1.661 -2.861,-4.479 -1.241,-6.491 1.257,-1.562 3.374,-1.132 4.69,-0.013 -2.578,-2.783 2.475,-2.581 4.022,-1.834 -0.099,-2.11 1.132,-2.929 3.144,-2.188 3.246,1.197 5.238,5.357 5.605,8.532 0.425,3.666 0.341,7.357 0.652,11.03 0.303,3.566 1.683,5.932 5.353,5.891 3.554,-0.039 6.227,0.031 7.033,4.229 0.305,1.594 -1.004,5.843 0.327,6.764 2.025,1.402 7.001,-3.033 7.115,-0.103 C -1.277,1.273 -0.921,-0.83 0,0"
             style="fill:#87292e;fill-opacity:1;fill-rule:nonzero;stroke:none"
             id="path84"
             inkscape:connector-curvature="0" /></g><g
           id="g86"
           transform="translate(336.5,412)"><path
             d="m 0,0 -18.75,-47.25 c 0,0 5,-9.25 5,-8.25 0,1 18,41.5 18,41.5 z"
             style="fill:#fcbc86;fill-opacity:1;fill-rule:nonzero;stroke:none"
             id="path88"
             inkscape:connector-curvature="0" /></g><g
           id="g90"
           transform="translate(364.75,438.25)"><path
             d="m 0,0 c 0,0 0.5,-13.75 -0.25,-24.25 -0.75,-10.5 -2.5,-27 -9.5,-29.25 -7,-2.25 -12.75,0.25 -12.75,0.25 0,0 -5.5,17.5 -7,30.75 -3.25,-3.5 -10.25,-1.5 -8.75,5 1.5,6.5 6.25,9.75 10,2.75 1.25,8.25 4.5,11 4.5,11 L -25,5.5 c 0,0 15.75,2.75 25,-5.5"
             style="fill:#fcbc86;fill-opacity:1;fill-rule:nonzero;stroke:none"
             id="path92"
             inkscape:connector-curvature="0" /></g><g
           id="g94"
           transform="translate(359.333,417.3335)"><path
             d="m 0,0 2.667,-16.667 -6,-0.333"
             style="fill:none;stroke:#e57b33;stroke-width:0.69999999;stroke-linecap:butt;stroke-linejoin:miter;stroke-miterlimit:10;stroke-dasharray:none;stroke-opacity:1"
             id="path96"
             inkscape:connector-curvature="0" /></g><g
           id="g98"
           transform="translate(345.25,406.25)"><path
             d="M 0,0 C 0,0 -0.75,-10.5 6.25,-10.5"
             style="fill:none;stroke:#e57b33;stroke-width:0.69999999;stroke-linecap:butt;stroke-linejoin:miter;stroke-miterlimit:10;stroke-dasharray:none;stroke-opacity:1"
             id="path100"
             inkscape:connector-curvature="0" /></g><g
           id="g102"
           transform="translate(352,420.5)"><path
             d="M 0,0 C 0,0 -2.25,3 -7.75,1.75"
             style="fill:none;stroke:#ad5a23;stroke-width:0.69999999;stroke-linecap:butt;stroke-linejoin:miter;stroke-miterlimit:10;stroke-dasharray:none;stroke-opacity:1"
             id="path104"
             inkscape:connector-curvature="0" /></g><g
           id="g106"
           transform="translate(353.3564,426.3853)"><path
             d="M 0,0 C 0,0 1.387,-0.106 2.933,1.76 1.227,3.359 -3.306,5.918 -5.225,6.398 -7.145,6.878 -9.33,6.185 -9.33,6.185 c 0,0 2.825,-1.386 4.425,-2.506 C -3.306,2.56 0,0 0,0"
             style="fill:#87292e;fill-opacity:1;fill-rule:nonzero;stroke:none"
             id="path108"
             inkscape:connector-curvature="0" /></g><g
           id="g110"
           transform="translate(327.75,352)"><path
             d="m 0,0 c 0,0 -2.125,-8.5 -4.625,-11.375 -0.875,-4 -18.625,-13 -35,-2.75 -16.375,10.25 -21.375,22.875 -48,24 -8.75,7 -13.25,10.875 -13.25,10.875 l 17.125,6.375 c 0,0 20.125,-5.375 34.125,-21.25 14,-15.875 25.75,-28 43.125,-16.875 -1.125,7.25 -3.125,13.25 -3.125,13.25 z"
             style="fill:#ff2458;fill-opacity:1;fill-rule:nonzero;stroke:none"
             id="path112"
             inkscape:connector-curvature="0" /></g><g
           id="g114"
           transform="translate(316,378)"><path
             d="m 0,0 10.5,-22.25 c 0,0 -15.75,-14.5 -16.25,-12.25 -0.5,2.25 0.25,31 0.25,31 z"
             style="fill:#ffffff;fill-opacity:1;fill-rule:nonzero;stroke:none"
             id="path116"
             inkscape:connector-curvature="0" /></g><g
           id="g118"
           transform="translate(242.125,177.125)"><path
             d="m 0,0 -3.75,-1.75 -2.5,6 5.25,3 z"
             style="fill:#383838;fill-opacity:1;fill-rule:nonzero;stroke:none"
             id="path120"
             inkscape:connector-curvature="0" /></g><g
           id="g122"
           transform="translate(239,176)"><path
             d="m 0,0 c 0,0 -12,-22.25 -16.5,-32.25 -4.5,-10 -8.25,-21.25 -9.75,-24.5 -1.5,-3.25 -10,10.75 -3.5,27.75 6.5,17 19.5,29 22,36.75 C -3.5,7.75 -2.5,6 -2.5,6 Z"
             style="fill:#232323;fill-opacity:1;fill-rule:nonzero;stroke:none"
             id="path124"
             inkscape:connector-curvature="0" /></g><g
           id="g126"
           transform="translate(92.625,121.375)"><path
             d="m 0,0 -4.25,-1.5 c 0,0 -1.5,-2.75 0,-4.5 l 4,1.75 z"
             style="fill:#383838;fill-opacity:1;fill-rule:nonzero;stroke:none"
             id="path128"
             inkscape:connector-curvature="0" /></g><g
           id="g130"
           transform="translate(228,234.333)"><path
             d="M 0,0 -46.667,-64.333 -135.333,-111 c 0,0 -3.334,-6.666 0,-7.333 C -118,-112 -30,-74.666 -30,-74.666 L 44,3 Z"
             style="fill:#232323;fill-opacity:1;fill-rule:nonzero;stroke:none"
             id="path132"
             inkscape:connector-curvature="0" /></g><g
           id="g134"
           transform="translate(243.3335,269.6665)"><path
             d="m 0,0 c 0,0 -20.667,-16 -22.333,-30.333 -1.667,-14.334 29,-11.334 131,10 C 79,-38 -4.667,-83.667 -4.667,-83.667 L -1,-94 c 0,0 121.667,50 163.333,84.333 C 131,2.333 30.333,10 0,0"
             style="fill:#232323;fill-opacity:1;fill-rule:nonzero;stroke:none"
             id="path136"
             inkscape:connector-curvature="0" /></g><g
           id="g138"
           transform="translate(225.5649,232.1621)"><path
             d="M 0,0 C 6.325,-2.546 19.573,-2.153 42.412,1.245"
             style="fill:none;stroke:#3a3a3a;stroke-width:0.5;stroke-linecap:butt;stroke-linejoin:miter;stroke-miterlimit:10;stroke-dasharray:none;stroke-opacity:1"
             id="path140"
             inkscape:connector-curvature="0" /></g><g
           id="g142"
           transform="translate(303.0098,274.0859)"><path
             d="M 0,0 C -16.745,0.471 -32.424,0.091 -44.535,-1.379"
             style="fill:none;stroke:#3a3a3a;stroke-width:0.5;stroke-linecap:butt;stroke-linejoin:miter;stroke-miterlimit:10;stroke-dasharray:none;stroke-opacity:1"
             id="path144"
             inkscape:connector-curvature="0" /></g><g
           id="g146"
           transform="translate(362.4697,420.6123)"><path
             d="m 0,0 c 0,0 -1.763,-1.763 -0.392,-3.721 9.204,-0.783 102.614,-7.637 102.614,-7.637 L 101.83,7.05 Z"
             style="fill:#ffce43;fill-opacity:1;fill-rule:nonzero;stroke:none"
             id="path148"
             inkscape:connector-curvature="0" /></g><g
           id="g150"
           transform="translate(361.5605,418.3384)"><path
             d="M 0,0 99.974,0.218 102.272,6.662 0.073,0.737 C 0.019,0.508 -0.012,0.261 0,0"
             style="fill:#ffe094;fill-opacity:1;fill-rule:nonzero;stroke:none"
             id="path152"
             inkscape:connector-curvature="0" /></g><g
           id="g154"
           transform="translate(469,418.5562)"><path
             d="m 0,0 c 0,-5.462 -1.885,-9.89 -4.21,-9.89 -2.325,0 -4.211,4.428 -4.211,9.89 0,5.461 1.886,9.889 4.211,9.889 C -1.885,9.889 0,5.461 0,0"
             style="fill:#f4ac1c;fill-opacity:1;fill-rule:nonzero;stroke:none"
             id="path156"
             inkscape:connector-curvature="0" /></g><g
           id="g158"
           transform="translate(468.0449,418.5562)"><path
             d="m 0,0 c 0,-4.223 -1.457,-7.647 -3.255,-7.647 -1.799,0 -3.256,3.424 -3.256,7.647 0,4.223 1.457,7.646 3.256,7.646 C -1.457,7.646 0,4.223 0,0"
             style="fill:#4fb8bb;fill-opacity:1;fill-rule:nonzero;stroke:none"
             id="path160"
             inkscape:connector-curvature="0" /></g><g
           id="g162"
           transform="translate(88.375,115.375)"><path
             d="m 0,0 c 0,0 -17.125,-19.375 -25.375,-30.625 -8.25,-11.25 -11,-15.75 -11,-15.75 0,0 -7.75,7.5 4.5,21.75 12.25,14.25 22.5,27.75 22.5,27.75 L 0,4.5 Z"
             style="fill:#232323;fill-opacity:1;fill-rule:nonzero;stroke:none"
             id="path164"
             inkscape:connector-curvature="0" /></g><g
           id="g166"
           transform="translate(206.6665,215.333)"><path
             d="m 0,0 c 0,0 -72.667,47 -104.667,62.667 -36,-37.333 -49.666,-60.333 -49.666,-60.333 L -45,-64.333 Z"
             style="fill:#232323;fill-opacity:1;fill-rule:nonzero;stroke:none"
             id="path168"
             inkscape:connector-curvature="0" /></g><g
           id="g170"
           transform="translate(153.9087,155.7305)"><path
             d="M 0,0 7.758,-4.73 17.619,9.367"
             style="fill:none;stroke:#3a3a3a;stroke-width:0.5;stroke-linecap:butt;stroke-linejoin:miter;stroke-miterlimit:10;stroke-dasharray:none;stroke-opacity:1"
             id="path172"
             inkscape:connector-curvature="0" /></g><g
           id="g174"
           transform="translate(361,427.125)"><path
             d="m 0,0 c 0,0 2.5,2.25 4.25,0.875 -0.125,-1 -3.875,-3 -3.875,-3 z"
             style="fill:#87292e;fill-opacity:1;fill-rule:nonzero;stroke:none"
             id="path176"
             inkscape:connector-curvature="0" /></g><g
           id="g178"
           transform="translate(427.833,425.1665)"><path
             d="M 0,0 C 0,0 -3.833,-5.833 0,-13.167"
             style="fill:none;stroke:#f4ac1c;stroke-width:1;stroke-linecap:butt;stroke-linejoin:miter;stroke-miterlimit:10;stroke-dasharray:none;stroke-opacity:1"
             id="path180"
             inkscape:connector-curvature="0" /></g><g
           id="g182"
           transform="translate(396.5,422.5)"><path
             d="M 0,0 C 0,0 -2,-5.5 0,-9"
             style="fill:none;stroke:#f4ac1c;stroke-width:1;stroke-linecap:butt;stroke-linejoin:miter;stroke-miterlimit:10;stroke-dasharray:none;stroke-opacity:1"
             id="path184"
             inkscape:connector-curvature="0" /></g><g
           id="g186"
           transform="translate(393.6201,428.4453)"><path
             d="m 0,0 c 0,0 -7.931,-4.994 -8.519,-9.106 -0.586,-4.112 9.401,-3.525 14.982,-1.469 5.581,2.056 11.75,6.463 11.75,6.463 0,0 -2.938,9.987 -18.213,4.112"
             style="fill:#fcbc86;fill-opacity:1;fill-rule:nonzero;stroke:none"
             id="path188"
             inkscape:connector-curvature="0" /></g><g
           id="g190"
           transform="translate(374.333,421.6665)"><path
             d="M 0,0 C 0,0 -1.5,-3.5 -0.333,-5.5"
             style="fill:none;stroke:#f4ac1c;stroke-width:1;stroke-linecap:butt;stroke-linejoin:miter;stroke-miterlimit:10;stroke-dasharray:none;stroke-opacity:1"
             id="path192"
             inkscape:connector-curvature="0" /></g><g
           id="g194"
           transform="translate(308,307.606)"><path
             d="m 0,0 c -0.305,-0.844 -0.921,-1.395 -1.375,-1.231 -0.454,0.164 -0.575,0.982 -0.271,1.826 0.305,0.844 0.921,1.395 1.375,1.231 C 0.185,1.661 0.306,0.844 0,0 Z"
             style="fill:none;stroke:#3a3a3a;stroke-width:0.5;stroke-linecap:butt;stroke-linejoin:miter;stroke-miterlimit:10;stroke-dasharray:none;stroke-opacity:1"
             id="path196"
             inkscape:connector-curvature="0" /></g><g
           id="g198"
           transform="translate(301.5,294.231)"><path
             d="m 0,0 c -0.305,-0.844 -0.921,-1.395 -1.375,-1.231 -0.454,0.164 -0.575,0.982 -0.271,1.826 0.305,0.844 0.921,1.395 1.375,1.231 C 0.185,1.661 0.306,0.844 0,0 Z"
             style="fill:none;stroke:#3a3a3a;stroke-width:0.5;stroke-linecap:butt;stroke-linejoin:miter;stroke-miterlimit:10;stroke-dasharray:none;stroke-opacity:1"
             id="path200"
             inkscape:connector-curvature="0" /></g><g
           id="g202"
           transform="translate(408.75,428)"><path
             d="M 0,0 C 0,0 -8,-4.75 -16.5,-11.5"
             style="fill:none;stroke:#e57b33;stroke-width:0.69999999;stroke-linecap:butt;stroke-linejoin:miter;stroke-miterlimit:10;stroke-dasharray:none;stroke-opacity:1"
             id="path204"
             inkscape:connector-curvature="0" /></g><g
           id="g206"
           transform="translate(403.75,430.25)"><path
             d="M 0,0 C 0,0 -13,-10 -16.25,-13.75"
             style="fill:none;stroke:#e57b33;stroke-width:0.69999999;stroke-linecap:butt;stroke-linejoin:miter;stroke-miterlimit:10;stroke-dasharray:none;stroke-opacity:1"
             id="path208"
             inkscape:connector-curvature="0" /></g><g
           id="g210"
           transform="translate(395.75,429.25)"><path
             d="M 0,0 C 0,0 -7.75,-7.5 -9.75,-10.75"
             style="fill:none;stroke:#e57b33;stroke-width:0.69999999;stroke-linecap:butt;stroke-linejoin:miter;stroke-miterlimit:10;stroke-dasharray:none;stroke-opacity:1"
             id="path212"
             inkscape:connector-curvature="0" /></g><g
           id="g214"
           transform="translate(145.5,267.25)"><path
             d="M 0,0 -3.333,-6.75"
             style="fill:none;stroke:#e57b33;stroke-width:0.69999999;stroke-linecap:butt;stroke-linejoin:miter;stroke-miterlimit:10;stroke-dasharray:none;stroke-opacity:1"
             id="path216"
             inkscape:connector-curvature="0" /></g><g
           id="g218"
           transform="translate(148.75,264.75)"><path
             d="M 0,0 -3,-6.75"
             style="fill:none;stroke:#e57b33;stroke-width:0.69999999;stroke-linecap:butt;stroke-linejoin:miter;stroke-miterlimit:10;stroke-dasharray:none;stroke-opacity:1"
             id="path220"
             inkscape:connector-curvature="0" /></g><g
           id="g222"
           transform="translate(152.5,262.75)"><path
             d="M 0,0 -2.5,-6.5"
             style="fill:none;stroke:#e57b33;stroke-width:0.69999999;stroke-linecap:butt;stroke-linejoin:miter;stroke-miterlimit:10;stroke-dasharray:none;stroke-opacity:1"
             id="path224"
             inkscape:connector-curvature="0" /></g><g
           id="g226"
           transform="translate(329.833,423.3335)"><path
             d="M 0,0 C 0,0 4.917,1.583 5.167,-3 3.5,-4 3.834,-5 5,-6"
             style="fill:none;stroke:#e57b33;stroke-width:0.69999999;stroke-linecap:butt;stroke-linejoin:miter;stroke-miterlimit:10;stroke-dasharray:none;stroke-opacity:1"
             id="path228"
             inkscape:connector-curvature="0" /></g><g
           id="g230"
           transform="translate(332.333,423.5)"><path
             d="M 0,0 C 0,0 -2,-2.667 -2.333,-5.167"
             style="fill:none;stroke:#e57b33;stroke-width:0.69999999;stroke-linecap:butt;stroke-linejoin:miter;stroke-miterlimit:10;stroke-dasharray:none;stroke-opacity:1"
             id="path232"
             inkscape:connector-curvature="0" /></g><g
           id="g234"
           transform="translate(187.8335,228.5)"><path
             d="m 0,0 -1.167,-2 10,-6.167 2,1.834 z"
             style="fill:#ffce43;fill-opacity:1;fill-rule:nonzero;stroke:none"
             id="path236"
             inkscape:connector-curvature="0" /></g><g
           id="g238"
           transform="translate(121.5,269.75)"><path
             d="m 0,0 -1.75,-2.5 -10.5,6 C -11.5,5.25 0,0 0,0"
             style="fill:#ffce43;fill-opacity:1;fill-rule:nonzero;stroke:none"
             id="path240"
             inkscape:connector-curvature="0" /></g></g></g></g></svg>